<svg xmlns="http://www.w3.org/2000/svg" width="24" height="24" viewBox="-3 -3 30 30" fill="none" stroke="currentColor" stroke-width="2" stroke-linecap="round" stroke-linejoin="round" class="lucide lucide-box-icon lucide-box" transform="matrix(-1, 0, 0, 1, 0, 0)"><g id="deeditor_bgCarrier" stroke-width="0">
  <rect id="dee_c_e" x="-3" y="-3" width="30" height="30" rx="38.4" fill="#f3fcfc" strokewidth="0"/>
</g><path d="M21 8a2 2 0 0 0-1-1.73l-7-4a2 2 0 0 0-2 0l-7 4A2 2 0 0 0 3 8v8a2 2 0 0 0 1 1.73l7 4a2 2 0 0 0 2 0l7-4A2 2 0 0 0 21 16Z" fill="#ffffff"/><path d="m3.3 7 8.7 5 8.7-5" fill="#ffffff"/><path d="M12 22V12" fill="#ffffff"/></svg>